<?xml version="1.0" encoding="UTF-8"?>
<svg id="Layer_1" data-name="Layer 1" xmlns="http://www.w3.org/2000/svg" xmlns:xlink="http://www.w3.org/1999/xlink" viewBox="0 0 1454.42 1360.4">
  <defs>
    <style>
      .cls-1 {
        clip-path: url(#clippath);
      }

      .cls-2 {
        fill: none;
      }

      .cls-2, .cls-3, .cls-4 {
        stroke-width: 0px;
      }

      .cls-3 {
        fill: url(#linear-gradient);
      }

      .cls-4 {
        fill: #fff;
      }
    </style>
    <linearGradient id="linear-gradient" x1="680.2" y1="1360.2" x2="680.2" y2="-.2" gradientTransform="translate(0 1360.2) scale(1 -1)" gradientUnits="userSpaceOnUse">
      <stop offset="0" stop-color="#de1b53"/>
      <stop offset="1" stop-color="#f47939"/>
    </linearGradient>
    <clipPath id="clippath">
      <path class="cls-2" d="M513.7,323.7c-1.6.2-5.8,1-9.6,1.7-12.8,2.2-39.8,13.6-87.5,36.5-18.3,8.9-37.2,17.4-41.7,19-10.2,3.5-24.3,3.7-39.5.9-8.4-1.6-17.4-1.9-54-1.9-45.5-.1-53.5.6-74.8,5.6-11.2,2.7-28.4,11.8-44,23.4-19.2,14.3-26,22.5-31.7,38.6-1.7,4.5-4,10.3-5.4,12.9-4.7,9.4-25.2,26.9-40.4,34.6-3.4,1.7-15.4,6.2-26.6,9.9-22.6,7.5-27.9,9.9-34.8,15.5-9.7,7.9-10.5,18.5-2.7,34.7,3.7,7.4,6.9,11.7,16.1,21.4,13.3,13.9,23.8,21.4,37.3,26.3,19.9,7.1,21.7,7.4,47.3,7.3,20,0,26.4-.6,42.2-3,46.5-7.6,55-8.9,80.4-11.6,43.3-4.7,71.9-2.9,102.3,6.4,19.4,6,69.1,29.7,95.2,45.3,24.1,14.4,30.1,20,87.6,79.5,13.4,13.8,26.2,27.8,28.4,31,5.3,7.4,8.9,16.3,13.2,32.7,3.4,12.8,3.6,14.2,4.5,47.7.4,19.1,1.1,35,1.3,35.4.3.6,1.1,11,1.8,23.4.8,12.4,2.1,30.4,3.3,39.9,1.3,12.8,1.8,27.7,1.8,56.2,0,41.6-.7,49-5.6,59.1-3.5,7.3-8.2,10.6-22.1,15.1-8.8,2.8-11.5,4.3-14.6,7.8-4.4,4.8-8,13.6-10.3,25.1-3.1,14.5-1.5,20.8,5.7,23.3,6,2,131.4,3,185.9,1.5l39.8-1.1,7.4-3.8c4-2.1,20.2-12.5,36-22.9,37.2-24.7,34.1-22.9,75.8-43.7,33.5-16.6,36.3-18.3,39.5-22.8,3.1-4.6,3.4-5.5,3.3-15.2,0-8.8-.7-12.3-4.3-23.3s-4.4-14.8-4.8-26c-.6-11.6-.3-13.5,1.7-17.5,9.3-18.1,24.2-24.2,76.9-31.3,67.3-9.1,95.2-16.6,121.2-32.7,31.9-19.8,35.5-20.1,70.8-7,52.4,19.6,82,21,147.8,7.4,24.3-4.9,41.9-11,65.2-22.4,36.1-17.5,53.6-34.3,55.3-52.6.3-3.7,0-8.3-.7-10.5-1.7-5.2-7.2-8.2-12.6-7.2-4.2.8-18.2,9.1-27.2,16.3-22.9,18.1-56.8,30.1-105.9,37.7-59.7,9.2-92.6,2.6-120.1-23.9-12.4-12-20.7-23.5-29.2-40.1-13.7-27.1-22.3-51.8-30.6-88.8-6.2-27.4-13.9-54.2-20.7-72.4-6-15.5-17.2-42.2-20.7-48.3-10.3-19-20.2-34.6-29-46.1-8.1-10.7-30.4-32.5-37-36.3-7-3.9-66.4-31.9-74.8-35.1-3.7-1.5-12-4.9-18.5-7.9-6.5-2.8-16.6-7.2-22.5-9.6-11.1-4.4-43.4-19.1-54-24.6-16.8-8.7-31.3-13.5-82.1-27.1-39.2-10.5-51.9-14.3-104-31.5-77-25.4-97-30.2-129.8-30.9-10.1-.4-19.6-.4-21.2,0ZM778.2,793.8c1.7,1.1,3.8,3,4.7,4.3,2.5,3.3,2,12.5-1.2,23-9.3,30.8-9.7,32.6-10.2,56.8-.3,13.8-.1,26.3.7,32.3,2.7,20.2,13.9,59.7,22.6,79.5,2.2,5.3,6.1,15.3,8.4,22.3,3.9,12,4.2,13.5,3.7,23-.4,8.1-1.2,11.6-3.5,16-4,8.1-12,16.5-21.6,22.9-10.1,6.7-17.8,9.7-31,12-15.1,2.6-21.7.8-40.9-11.1-13.4-8.4-20.9-8.1-42.6,1.3-13.9,6.1-15.9,6.5-18.8,4.3-5.7-4.4-5.2-9.6,3-30.1,10.2-25.3,10.8-50.8,2.1-86.9-4.6-18.9-6.2-29.7-6.2-41.9,0-12.8,1.7-19.3,6.9-27,5.3-7.6,69.7-73.3,80.5-82.1,12-9.7,19.9-14.5,29.6-17.9,8.9-3.2,9.8-3.3,13.8-.7Z"/>
    </clipPath>
  </defs>
  <circle class="cls-3" cx="680.2" cy="680.2" r="680.2"/>
  <g class="cls-1">
    <circle class="cls-4" cx="680.2" cy="680.2" r="680.2"/>
  </g>
  <path class="cls-4" d="M1076.1,1024c-7.8,1.9-54,24.3-68.7,33.3-5.1,3.1-11,7.6-13.2,10-3.7,4.2-3.9,4.8-3.9,12.4,0,8.7,1.3,12.3,6.4,16.9,6.7,6.4,15.1,8.8,40.2,11.7,8.7,1,22,2.8,29.8,4.2,18.2,2.9,38.4,2.4,49.5-1.3,25-8.4,43.4-25.2,38.3-34.7-.7-1.2-4.9-4.4-9.4-7-10.5-6.2-13.9-9.9-16.1-17.8-3.7-13.5-6.2-16.5-16.4-19.8-3.3-1.1-8.8-3.4-12.3-5.2-7.9-4-15.3-4.8-24.2-2.7Z"/>
</svg>